<svg width="10" height="10" viewBox="0 0 10 10" xmlns="http://www.w3.org/2000/svg">
    <defs>
        <filter id="9owiimv87a">
            <feColorMatrix in="SourceGraphic" values="0 0 0 0 1.000000 0 0 0 0 1.000000 0 0 0 0 1.000000 0 0 0 1.000000 0"/>
        </filter>
    </defs>
    <g transform="translate(0 -2)" filter="url(#9owiimv87a)" fill="none" fill-rule="evenodd">
        <g fill="#000" fill-rule="nonzero">
            <path d="M5.09 5.047a.577.577 0 0 0 0-.797L3.039 2.18a.577.577 0 0 0-.796 0L.17 4.25a.577.577 0 0 0 0 .797.577.577 0 0 0 .796 0l1.097-1.098v7.433c0 .301.248.567.567.567a.57.57 0 0 0 .566-.567V3.95l1.097 1.098c.107.106.248.159.39.159a.59.59 0 0 0 .407-.16zM9.763 8.905a.577.577 0 0 0-.796 0L7.87 10.002V2.57a.57.57 0 0 0-.567-.566.586.586 0 0 0-.566.584v7.433L5.64 8.923a.549.549 0 0 0-.39-.16.549.549 0 0 0-.39.16.577.577 0 0 0 0 .796l2.054 2.053a.577.577 0 0 0 .796 0l2.053-2.053a.6.6 0 0 0 0-.814z"/>
        </g>
    </g>
</svg>
