<svg width="12" height="14" viewBox="0 0 12 14" xmlns="http://www.w3.org/2000/svg">
    <defs>
        <filter id="js86ef17pa">
            <feColorMatrix in="SourceGraphic" values="0 0 0 0 0.454902 0 0 0 0 0.447059 0 0 0 0 0.447059 0 0 0 1.000000 0"/>
        </filter>
    </defs>
    <g transform="translate(-21 -16)"  fill="none" fill-rule="evenodd">
        <path d="M26.826 16.016h-.178c-2.392.079-4.23 2.115-4.23 4.507v1.424h-.1c-.652 0-1.166.514-1.166 1.166v5.398c0 .652.514 1.166 1.167 1.166h8.956c.652 0 1.166-.514 1.166-1.166v-5.398c0-.652-.514-1.166-1.166-1.166h-.04v-1.542c0-2.412-1.977-4.39-4.409-4.39zm.83 11.15a.22.22 0 0 1-.217.257H26.134a.22.22 0 0 1-.217-.257l.257-1.226c-.237-.217-.395-.534-.336-.89.06-.415.415-.75.83-.81h.119a.97.97 0 0 1 .613 1.72l.257 1.206zm1.642-5.22h-4.963v-1.462c0-1.285.95-2.432 2.234-2.55.08 0 .159-.02.238-.02a2.493 2.493 0 0 1 2.49 2.49v1.543z" fill="#000" fill-rule="nonzero"/>
    </g>
</svg>
