<svg width="13" height="13" viewBox="0 0 13 13" xmlns="http://www.w3.org/2000/svg">
    <defs>
        <filter id="gr5qk97rxa">
            <feColorMatrix in="SourceGraphic" values="0 0 0 0 0.454902 0 0 0 0 0.447059 0 0 0 0 0.447059 0 0 0 1.000000 0"/>
        </filter>
    </defs>
    <g transform="translate(0 -4)" filter="url(#gr5qk97rxa)" fill="none" fill-rule="evenodd">
        <g fill="#000" fill-rule="nonzero">
            <path d="M10.038 7.7a3.7 3.7 0 1 1-7.399 0 3.7 3.7 0 0 1 7.399 0"/>
            <path d="M12.502 15.158a6.478 6.478 0 0 0-3.218-3.94 4.628 4.628 0 0 1-6.002 0 6.472 6.472 0 0 0-3.214 3.94c-.126.425-.042.886.227 1.24.258.348.667.552 1.1.55h9.776a1.395 1.395 0 0 0 1.332-1.79z"/>
        </g>
    </g>
</svg>
